<svg xmlns="http://www.w3.org/2000/svg" height="1024" preserveAspectRatio="none" style="display: block;" version="1.1" viewBox="0 0 2048 2048" width="1024">
<defs>
	<linearGradient gradientUnits="userSpaceOnUse" id="Gradient1" x1="1840.18" x2="1847.48" y1="1621.94" y2="1630.49">
		<stop class="stop0" offset="0" stop-color="rgb(22,20,55)" stop-opacity="0.905882"></stop>
		<stop class="stop1" offset="1" stop-color="rgb(27,24,58)" stop-opacity="0.968627"></stop>
	</linearGradient>
	<linearGradient gradientUnits="userSpaceOnUse" id="Gradient2" x1="1898.35" x2="1906.09" y1="1520.5" y2="1524.1">
		<stop class="stop0" offset="0" stop-color="rgb(22,19,53)" stop-opacity="0.87451"></stop>
		<stop class="stop1" offset="1" stop-color="rgb(23,21,55)" stop-opacity="0.913725"></stop>
	</linearGradient>
</defs>
<path d="M 1017.31 0 L 1113.49 0 C 1114.98 2.76133 1114.42 3.21684 1117.75 3.78426 C 1137.36 7.12892 1157.81 8.55438 1177.54 11.4428 C 1218.93 17.106 1259.88 25.6063 1300.11 36.8835 C 1549.04 106.905 1762.41 268.231 1897.62 488.656 C 1956.25 584.003 1998.63 688.437 2023 797.683 C 2030 828.063 2036.41 858.495 2039.55 889.56 C 2040.07 894.703 2040.34 905.218 2044.6 908.13 L 2043.6 908.281 C 2040.52 908.658 2043.69 927.048 2044.13 929.998 C 2046.59 946.72 2045.2 967.022 2048 983.29 L 2048 1074.46 C 2045.72 1087.1 2043.49 1119.47 2042.38 1133.79 C 2026.8 1270.05 1986.89 1396.49 1921.63 1517.35 C 1918.52 1523.11 1896.1 1561.68 1892.66 1565 C 1887.89 1568.02 1890.73 1566.29 1888.48 1568.79 C 1888.08 1568.84 1887.41 1568.04 1886.55 1567.92 C 1885.31 1568.61 1885.46 1569.93 1884.96 1571.41 C 1885.3 1571.86 1885.5 1571.96 1885.5 1572.38 C 1881.47 1574.36 1884.2 1580.93 1874.46 1585.34 L 1874.93 1584.99 L 1874.08 1583.88 C 1875.52 1576.17 1884.57 1572.3 1886.39 1563.59 C 1888.39 1554 1887.13 1557.35 1892.86 1549.2 C 1899.88 1540.84 1882.64 1540.94 1881.38 1549.43 C 1881.2 1550.64 1879.97 1551.44 1878.57 1551.45 C 1874.63 1557.83 1870.63 1564.15 1866.55 1570.43 C 1861.57 1578.11 1856.48 1585.72 1851.28 1593.27 C 1834.94 1617 1817.58 1640.02 1799.25 1662.26 C 1795.65 1666.64 1792 1670.98 1788.32 1675.3 C 1664.39 1820.62 1501.59 1927.58 1319 1983.63 L 1320.56 1987.23 C 1325.39 1989.15 1342.18 1985.6 1346.04 1981.55 C 1348.3 1980.71 1374.66 1972.21 1374.36 1972.03 C 1374.64 1973.03 1373.54 1973.51 1372.75 1974.23 C 1368.97 1977.36 1360.49 1979.74 1355.48 1981.04 C 1356.39 1980.96 1326.75 1990.77 1327.59 1990.17 C 1330.35 1990.24 1333.51 1989.89 1335.99 1989.8 C 1341.01 1989.61 1350.63 1993.02 1353.94 1987.76 C 1358.38 1980.71 1370.18 1981.22 1377.03 1985.69 C 1329.92 2003.03 1270.04 2020.94 1220.32 2030.17 C 1198.55 2034.05 1176.7 2037.37 1154.77 2040.14 C 1147.7 2041.06 1123.31 2042.75 1119.07 2046.19 L 1118.77 2048 L 951.97 2048 C 948.492 2045.55 900.188 2041.02 891.498 2039.89 C 857.902 2035.23 824.509 2029.22 791.4 2021.86 C 725.723 2006.12 661.662 1984.27 600.054 1956.6 C 570.008 1943.24 539.599 1926.64 511.223 1910.13 C 288.623 1780.66 122.855 1572.22 46.8384 1326.18 C 36.6139 1292.07 24.302 1249.24 18.5134 1214.6 C 14.6784 1191.05 11.201 1167.43 8.08226 1143.77 C 7.21281 1136.94 3.99056 1104.78 2.21864 1100.18 L 0 1099.71 L 0 948.357 C 1.68225 947.37 2.8912 946.325 3.27867 944.291 C 6.2163 928.87 6.72398 911.089 8.90827 895.702 C 12.2767 871.974 16.1453 847.543 20.7081 824.144 C 54.2062 654.195 130.415 495.57 242.155 363.211 C 416.587 154.649 667.656 25.1142 938.713 3.83133 C 942.302 4.34041 949.023 5.66403 952.35 5.17853 C 968.227 2.86208 983.124 7.74849 998.288 8.62042 C 1014.93 9.5773 1033.12 8.98875 1049.96 9 C 1052.94 9.00171 1060.35 9.88857 1061.97 7.91309 L 1061.88 7.73984 L 1061.97 7.69567 L 1061.98 7.5933 C 1055.76 0.537363 1026.87 3.46126 1017.31 0 z M 0 948.357 L 0 1099.71 L 2.21864 1100.18 C 3.99056 1104.78 7.21281 1136.94 8.08226 1143.77 C 11.201 1167.43 14.6784 1191.05 18.5134 1214.6 C 24.302 1249.24 36.6139 1292.07 46.8384 1326.18 C 122.855 1572.22 288.623 1780.66 511.223 1910.13 C 539.599 1926.64 570.008 1943.24 600.054 1956.6 C 661.662 1984.27 725.723 2006.12 791.4 2021.86 C 824.509 2029.22 857.902 2035.23 891.498 2039.89 C 900.188 2041.02 948.492 2045.55 951.97 2048 L 1118.77 2048 L 1119.07 2046.19 C 1123.31 2042.75 1147.7 2041.06 1154.77 2040.14 C 1176.7 2037.37 1198.55 2034.05 1220.32 2030.17 C 1270.04 2020.94 1329.92 2003.03 1377.03 1985.69 C 1370.18 1981.22 1358.38 1980.71 1353.94 1987.76 C 1350.63 1993.02 1341.01 1989.61 1335.99 1989.8 C 1333.51 1989.89 1330.35 1990.24 1327.59 1990.17 C 1326.75 1990.77 1356.39 1980.96 1355.48 1981.04 C 1360.49 1979.74 1368.97 1977.36 1372.75 1974.23 C 1373.54 1973.51 1374.64 1973.03 1374.36 1972.03 C 1374.66 1972.21 1348.3 1980.71 1346.04 1981.55 C 1342.18 1985.6 1325.39 1989.15 1320.56 1987.23 L 1319 1983.63 C 855.162 2126.01 355.865 1916.32 132.781 1485.44 C -90.3034 1054.56 26.664 525.797 410.67 229.213 C 794.677 -67.3712 1335.83 -46.9073 1696.34 277.831 C 2056.86 602.569 2133.56 1138.65 1878.57 1551.45 C 1879.97 1551.44 1881.2 1550.64 1881.38 1549.43 C 1882.64 1540.94 1899.88 1540.84 1892.86 1549.2 C 1887.13 1557.35 1888.39 1554 1886.39 1563.59 C 1884.57 1572.3 1875.52 1576.17 1874.08 1583.88 L 1874.93 1584.99 L 1874.46 1585.34 C 1884.2 1580.93 1881.47 1574.36 1885.5 1572.38 C 1885.5 1571.96 1885.3 1571.86 1884.96 1571.41 C 1885.46 1569.93 1885.31 1568.61 1886.55 1567.92 C 1887.41 1568.04 1888.08 1568.84 1888.48 1568.79 C 1890.73 1566.29 1887.89 1568.02 1892.66 1565 C 1896.1 1561.68 1918.52 1523.11 1921.63 1517.35 C 1986.89 1396.49 2026.8 1270.05 2042.38 1133.79 C 2043.49 1119.47 2045.72 1087.1 2048 1074.46 L 2048 983.29 C 2045.2 967.022 2046.59 946.72 2044.13 929.998 C 2043.69 927.048 2040.52 908.658 2043.6 908.281 L 2044.6 908.13 C 2040.34 905.218 2040.07 894.703 2039.55 889.56 C 2036.41 858.495 2030 828.063 2023 797.683 C 1998.63 688.437 1956.25 584.003 1897.62 488.656 C 1762.41 268.231 1549.04 106.905 1300.11 36.8835 C 1259.88 25.6063 1218.93 17.106 1177.54 11.4428 C 1157.81 8.55438 1137.36 7.12892 1117.75 3.78426 C 1114.42 3.21684 1114.98 2.76133 1113.49 0 L 1017.31 0 C 1026.87 3.46126 1055.76 0.537363 1061.98 7.5933 L 1061.97 7.69567 L 1061.88 7.73984 L 1061.97 7.91309 C 1060.35 9.88857 1052.94 9.00171 1049.96 9 C 1033.12 8.98875 1014.93 9.5773 998.288 8.62042 C 983.124 7.74849 968.227 2.86208 952.35 5.17853 C 949.023 5.66403 942.302 4.34041 938.713 3.83133 C 667.656 25.1142 416.587 154.649 242.155 363.211 C 130.415 495.57 54.2062 654.195 20.7081 824.144 C 16.1453 847.543 12.2767 871.974 8.90827 895.702 C 6.72398 911.089 6.2163 928.87 3.27867 944.291 C 2.8912 946.325 1.68225 947.37 0 948.357 z M 273.117 611.752 C 202.698 739.413 166.171 882.991 167.021 1028.78 C 168.345 1254.42 259.151 1470.32 419.504 1629.07 C 536.516 1746.39 685.139 1827.14 847.25 1861.45 C 895.228 1872.04 953.441 1880.45 1002.58 1880.44 C 1010.08 1891.12 1016.66 1905.07 1022.51 1916.86 C 1029.25 1907.6 1038.17 1890.29 1043.86 1879.92 C 1064.73 1879.67 1085.58 1878.63 1106.37 1876.79 C 1329.9 1854.49 1535.86 1745.71 1680.3 1573.67 C 1822.7 1402.28 1899.16 1173.13 1878.35 950.462 C 1861.9 755.439 1779.43 571.86 1644.54 430.049 C 1622.59 407.003 1600.22 384.678 1575.66 364.371 C 1398.04 215.274 1167.48 144.718 936.84 168.881 C 756.358 187.1 586.441 262.593 451.947 384.318 C 431.921 402.553 404.669 428.815 387.326 449.874 C 385.029 452.165 378.321 459.446 376.732 462.208 C 370.834 467.868 364.366 477.032 358.933 483.451 C 342.181 503.244 328.611 524.069 313.792 545.112 C 303.195 560.116 291.37 579.807 282.13 595.78 L 275.44 607.626 L 273.117 611.752 z" fill="rgb(200,141,103)" transform="translate(0,0)"></path>
<path d="M 1017.31 0 L 1113.49 0 C 1114.98 2.76133 1114.42 3.21684 1117.75 3.78426 C 1137.36 7.12892 1157.81 8.55438 1177.54 11.4428 C 1218.93 17.106 1259.88 25.6063 1300.11 36.8835 C 1549.04 106.905 1762.41 268.231 1897.62 488.656 C 1956.25 584.003 1998.63 688.437 2023 797.683 C 2030 828.063 2036.41 858.495 2039.55 889.56 C 2040.07 894.703 2040.34 905.218 2044.6 908.13 L 2043.6 908.281 C 2040.52 908.658 2043.69 927.048 2044.13 929.998 C 2046.59 946.72 2045.2 967.022 2048 983.29 L 2048 1074.46 C 2045.72 1087.1 2043.49 1119.47 2042.38 1133.79 C 2026.8 1270.05 1986.89 1396.49 1921.63 1517.35 C 1918.52 1523.11 1896.1 1561.68 1892.66 1565 C 1887.89 1568.02 1890.73 1566.29 1888.48 1568.79 C 1888.08 1568.84 1887.41 1568.04 1886.55 1567.92 C 1885.31 1568.61 1885.46 1569.93 1884.96 1571.41 C 1885.3 1571.86 1885.5 1571.96 1885.5 1572.38 C 1881.47 1574.36 1884.2 1580.93 1874.46 1585.34 L 1874.93 1584.99 L 1874.08 1583.88 C 1875.52 1576.17 1884.57 1572.3 1886.39 1563.59 C 1888.39 1554 1887.13 1557.35 1892.86 1549.2 C 1899.88 1540.84 1882.64 1540.94 1881.38 1549.43 C 1881.2 1550.64 1879.97 1551.44 1878.57 1551.45 C 2133.56 1138.65 2056.86 602.569 1696.34 277.831 C 1335.83 -46.9073 794.677 -67.3712 410.67 229.213 C 26.664 525.797 -90.3034 1054.56 132.781 1485.44 C 355.865 1916.32 855.162 2126.01 1319 1983.63 L 1320.56 1987.23 C 1325.39 1989.15 1342.18 1985.6 1346.04 1981.55 C 1348.3 1980.71 1374.66 1972.21 1374.36 1972.03 C 1374.64 1973.03 1373.54 1973.51 1372.75 1974.23 C 1368.97 1977.36 1360.49 1979.74 1355.48 1981.04 C 1356.39 1980.96 1326.75 1990.77 1327.59 1990.17 C 1330.35 1990.24 1333.51 1989.89 1335.99 1989.8 C 1341.01 1989.61 1350.63 1993.02 1353.94 1987.76 C 1358.38 1980.71 1370.18 1981.22 1377.03 1985.69 C 1329.92 2003.03 1270.04 2020.94 1220.32 2030.17 C 1198.55 2034.05 1176.7 2037.37 1154.77 2040.14 C 1147.7 2041.06 1123.31 2042.75 1119.07 2046.19 L 1118.77 2048 L 951.97 2048 C 948.492 2045.55 900.188 2041.02 891.498 2039.89 C 857.902 2035.23 824.509 2029.22 791.4 2021.86 C 725.723 2006.12 661.662 1984.27 600.054 1956.6 C 570.008 1943.24 539.599 1926.64 511.223 1910.13 C 288.623 1780.66 122.855 1572.22 46.8384 1326.18 C 36.6139 1292.07 24.302 1249.24 18.5134 1214.6 C 14.6784 1191.05 11.201 1167.43 8.08226 1143.77 C 7.21281 1136.94 3.99056 1104.78 2.21864 1100.18 L 0 1099.71 L 0 948.357 C 1.68225 947.37 2.8912 946.325 3.27867 944.291 C 6.2163 928.87 6.72398 911.089 8.90827 895.702 C 12.2767 871.974 16.1453 847.543 20.7081 824.144 C 54.2062 654.195 130.415 495.57 242.155 363.211 C 416.587 154.649 667.656 25.1142 938.713 3.83133 C 942.302 4.34041 949.023 5.66403 952.35 5.17853 C 968.227 2.86208 983.124 7.74849 998.288 8.62042 C 1014.93 9.5773 1033.12 8.98875 1049.96 9 C 1052.94 9.00171 1060.35 9.88857 1061.97 7.91309 L 1061.88 7.73984 L 1061.97 7.69567 L 1061.98 7.5933 C 1055.76 0.537363 1026.87 3.46126 1017.31 0 z M 989.963 18.8511 C 999.32 18.842 1051.41 19.1421 1058.78 17.1294 C 1056.14 16.9965 1043.54 16.4771 1041.96 15.6206 L 1045.24 14.5269 C 1045.27 14.5362 992.745 13.1839 991 13.5 L 983.337 14.3828 L 984.019 15.3043 C 987.173 15.3971 989.333 15.42 992.477 15.2305 C 984.471 18.1133 929.427 17.8426 927.544 20.8673 C 934.129 21.8044 982.357 19.6264 989.963 18.8511 z M 1898.26 1525.37 L 1896.64 1526.6 C 1888.36 1532.82 1887.43 1539.62 1899.59 1536.38 C 1902.79 1532.46 1904.49 1528.22 1908.63 1525.55 C 1910.07 1524.7 1911.69 1521.71 1911.43 1519.99 C 1910.34 1512.91 1918.17 1512.39 1919.56 1508.49 C 1921.58 1502.8 1913.82 1500.67 1910.81 1499.6 L 1909.83 1500.99 C 1907.92 1503.63 1906.06 1509.08 1905.2 1510.12 C 1899.64 1516.91 1900.05 1517.07 1898.26 1525.37 z M 1919.78 1495.09 C 1925.66 1490.39 1926.16 1487.82 1917.72 1486.33 C 1914.68 1490.97 1911.7 1496.26 1919.78 1495.09 z M 1929.02 1478.82 C 1932.44 1472.89 1932.26 1471.37 1925.09 1470.2 C 1921.83 1477.31 1920.87 1479.88 1929.02 1478.82 z" fill="rgb(24,21,55)" transform="translate(0,0)"></path>
<path d="M 991 13.5 C 992.745 13.1839 1045.27 14.5362 1045.24 14.5269 L 1041.96 15.6206 C 1043.54 16.4771 1056.14 16.9965 1058.78 17.1294 C 1051.41 19.1421 999.32 18.842 989.963 18.8511 C 982.357 19.6264 934.129 21.8044 927.544 20.8673 C 929.427 17.8426 984.471 18.1133 992.477 15.2305 C 989.333 15.42 987.173 15.3971 984.019 15.3043 L 983.337 14.3828 L 991 13.5 z" fill="rgb(24,21,55)" fill-opacity="0.843137" transform="translate(0,0)"></path>
<path d="M 1910.81 1499.6 C 1913.82 1500.67 1921.58 1502.8 1919.56 1508.49 C 1918.17 1512.39 1910.34 1512.91 1911.43 1519.99 C 1911.69 1521.71 1910.07 1524.7 1908.63 1525.55 C 1904.49 1528.22 1902.79 1532.46 1899.59 1536.38 C 1887.43 1539.62 1888.36 1532.82 1896.64 1526.6 L 1898.26 1525.37 C 1900.05 1517.07 1899.64 1516.91 1905.2 1510.12 C 1906.06 1509.08 1907.92 1503.63 1909.83 1500.99 L 1910.81 1499.6 z M 1916.53 1509.11 C 1917.16 1503.85 1914.13 1504.05 1909.42 1503.34 L 1908.93 1506.52 C 1908.04 1512.13 1912.82 1509.93 1916.53 1509.11 z" fill="url(#Gradient2)" transform="translate(0,0)"></path>
<path d="M 1909.42 1503.34 C 1914.13 1504.05 1917.16 1503.85 1916.53 1509.11 C 1912.82 1509.93 1908.04 1512.13 1908.93 1506.52 L 1909.42 1503.34 z" fill="rgb(24,21,55)" fill-opacity="0.854902" transform="translate(0,0)"></path>
<path d="M 1917.72 1486.33 C 1926.16 1487.82 1925.66 1490.39 1919.78 1495.09 C 1911.7 1496.26 1914.68 1490.97 1917.72 1486.33 z" fill="rgb(24,21,55)" fill-opacity="0.890196" transform="translate(0,0)"></path>
<path d="M 1925.09 1470.2 C 1932.26 1471.37 1932.44 1472.89 1929.02 1478.82 C 1920.87 1479.88 1921.83 1477.31 1925.09 1470.2 z" fill="rgb(24,21,55)" fill-opacity="0.905882" transform="translate(0,0)"></path>
<path d="M 387.326 449.874 C 404.669 428.815 431.921 402.553 451.947 384.318 C 586.441 262.593 756.358 187.1 936.84 168.881 C 1167.48 144.718 1398.04 215.274 1575.66 364.371 C 1600.22 384.678 1622.59 407.003 1644.54 430.049 C 1779.43 571.86 1861.9 755.439 1878.35 950.462 C 1899.16 1173.13 1822.7 1402.28 1680.3 1573.67 C 1535.86 1745.71 1329.9 1854.49 1106.37 1876.79 C 1085.58 1878.63 1064.73 1879.67 1043.86 1879.92 C 1038.17 1890.29 1029.25 1907.6 1022.51 1916.86 C 1016.66 1905.07 1010.08 1891.12 1002.58 1880.44 C 953.441 1880.45 895.228 1872.04 847.25 1861.45 C 685.139 1827.14 536.516 1746.39 419.504 1629.07 C 259.151 1470.32 168.345 1254.42 167.021 1028.78 C 166.171 882.991 202.698 739.413 273.117 611.752 C 277.14 622.052 284.22 611.241 284.188 609.949 C 284.172 609.278 283.87 608.646 283.359 608.211 C 281.424 606.578 277.778 607.352 275.44 607.626 L 282.13 595.78 C 286.529 610.152 295.119 591.437 300.034 590.114 C 307.355 588.52 300.698 584.185 301.656 580.047 C 303.206 573.353 309.805 575.293 312.319 568.593 C 313.142 566.399 317.541 562.426 319.337 559.886 C 322.752 561.085 319.561 561.46 321.412 564.051 C 321.729 564.166 322.038 564.316 322.369 564.376 C 322.546 564.668 322.461 564.425 322.374 565.41 L 322.323 565.332 C 322.061 566.653 321.801 567.943 321.61 569.282 L 320.806 570.923 C 316.23 580.111 305.346 596.625 299.681 606.527 C 285.224 631.479 272.093 657.176 260.342 683.511 C 177.227 872.785 162.348 1078.85 226.616 1276.19 C 294.773 1488.58 444.63 1665.13 643.127 1766.88 C 749.157 1820.71 871.861 1855.52 991.088 1859.01 L 990.565 1857.72 C 986.599 1848.05 979.7 1835.73 974.709 1826.18 C 965.02 1807.55 955.173 1788.99 945.168 1770.52 C 926.023 1735.18 926.492 1742.09 926.812 1701.99 C 926.882 1684.12 927.095 1666.24 927.452 1648.37 L 675.467 1648.11 C 622.44 1647.66 569.411 1647.94 516.392 1648.94 C 565.415 1621.09 618.212 1596.43 667.529 1568.01 C 633.972 1549.58 600.245 1531.46 566.353 1513.65 C 555.558 1507.95 530.615 1495.97 521.267 1490.24 L 522.304 1486.72 C 578.483 1485.3 638.171 1486.31 694.666 1486.33 C 772.101 1486.15 849.535 1486.38 926.967 1487.02 C 927.769 1466.22 926.852 1440.06 926.835 1418.88 L 926.848 1276.68 L 926.999 794.045 C 907.702 793.868 892.029 794.07 877.546 809.457 C 865.441 822.318 866.392 841.254 873.491 856.254 C 876.837 863.325 887.18 869.406 887.114 878.17 C 887.537 888.522 879.246 889.916 870.512 890.012 C 850.856 890.228 833.669 886.056 819.381 871.467 C 803.091 854.835 795.611 834.268 795.639 811.141 C 795.697 784.434 806.438 758.86 825.469 740.122 C 863.309 702.681 906.425 709.494 955.879 709.484 C 956.71 639.375 954.934 568.313 955.793 498.069 C 956.177 466.644 953.858 431.84 957.37 400.617 C 959.543 381.291 968.66 367.379 984.219 355.851 C 967.029 345.542 956.508 337.283 945.411 320.034 C 931.536 298.655 926.977 272.542 932.787 247.725 C 938.535 222.483 954.988 201.095 976.86 187.546 C 958.972 187.492 940.248 189.339 922.404 191.273 C 800.098 204.529 678.979 251.128 574.834 315.855 C 548.155 332.436 521.844 353.438 496.729 372.193 L 496.276 372.237 C 494.964 372.38 490.923 373.711 490.544 373.528 C 489.329 369.158 500.264 361.913 503.411 358.676 C 510.458 351.429 517.589 351.858 522.682 343.544 C 524.026 342.464 536.89 330.02 536.692 330.415 C 542.633 318.562 509.397 352.082 505.669 349.59 C 504.846 349.041 499.096 355.791 496.069 358.237 C 490.582 356.72 490.173 359.715 485.195 363.47 C 483.911 363.867 482.857 364.139 481.553 364.463 C 458.859 379.285 443.321 396.292 424.363 415.07 C 418.425 420.951 392.675 448.144 387.326 449.874 z M 1064.47 356.216 C 1066.7 357.841 1068.82 359.612 1070.81 361.517 C 1094.24 383.58 1092.25 411.492 1092.81 441.405 C 1093.13 458.297 1092.97 475.265 1093.02 492.161 L 1093.06 629.62 C 1093.03 655.813 1092.52 683.706 1093.24 709.708 C 1140.48 709.597 1183.15 703.777 1220.84 736.941 C 1273.65 783.411 1262.19 888.083 1181.39 889.766 C 1156.82 890.277 1156.88 877.434 1170.08 861.068 C 1183.4 844.728 1185.45 820.593 1168.6 805.683 C 1154.14 793.11 1139.3 792.912 1121.16 793.782 C 1119.88 827.648 1121.09 868.196 1121.36 902.5 L 1121.42 1049.13 C 1121.21 1193.63 1119.29 1342.76 1122.02 1486.84 C 1148.49 1487.43 1175.78 1486.28 1202.35 1486.43 C 1273.79 1486.83 1346.4 1485.2 1417.74 1486.85 C 1442.27 1489.05 1474.84 1486.31 1499.93 1487.13 C 1509.57 1487.45 1520.95 1486.17 1530.43 1487.74 C 1526.21 1490.33 1521.11 1492.79 1516.66 1495.08 C 1488.73 1509.44 1461.28 1524.64 1433.62 1539.5 C 1415.87 1549.02 1397.18 1557.71 1380.09 1568.3 C 1427.54 1595.92 1483.21 1621.09 1531.16 1648.68 C 1394.44 1647.85 1257.72 1647.75 1121.01 1648.39 C 1120.63 1673.56 1122.43 1708.44 1120.28 1733.29 C 1114.63 1753.5 1100.36 1774.19 1090.92 1792.68 C 1079.44 1815.14 1066.21 1836.58 1055.77 1858.99 C 1087.69 1860.44 1139.58 1852.65 1171.31 1846.71 C 1331.84 1817.31 1480.41 1742.02 1599.05 1629.97 C 1758.89 1479.16 1852.9 1271.47 1860.73 1051.86 C 1866.99 866.248 1812 683.734 1704.25 532.477 C 1560.72 332.403 1319.34 194.919 1071.71 187.003 C 1085.3 197 1095.87 205.847 1105.01 220.168 C 1118.05 240.748 1122.28 265.698 1116.76 289.427 C 1109.24 322.689 1091.8 338.888 1064.47 356.216 z M 1432.5 1515.45 C 1437.84 1513.1 1442.69 1509.84 1447.68 1506.86 C 1439.28 1506.81 1430.88 1506.8 1422.48 1506.83 C 1423.3 1517.34 1429.68 1513.25 1432.5 1515.45 z M 1430.42 1627.04 C 1435.95 1627.1 1441.49 1627.06 1447.02 1626.93 C 1439.02 1623.2 1431.1 1619.3 1423.25 1615.26 C 1420.11 1622.88 1422.98 1624.01 1430.42 1627.04 z M 1038.29 1746.71 C 1038.87 1746.95 1039.46 1747.18 1040.04 1747.41 L 1040.08 1747.39 C 1041.74 1748.97 1042.84 1755.77 1045.84 1743.92 C 1047.24 1738.39 1047.74 1739.91 1050.26 1735.43 C 1051.11 1733.92 1053.14 1726.3 1053.01 1724.02 C 1052.54 1720.92 1050.47 1722.51 1048.25 1722.14 C 1045.02 1730.24 1041.27 1738.56 1038.29 1746.71 z M 978.859 689.961 C 978.825 694.708 978.909 698.435 978.317 703.156 C 986.549 702.901 987.767 704.178 994.977 700.767 C 989.817 697.086 984.239 693.92 979.467 690.401 L 978.859 689.961 z M 977.091 424.238 L 977.033 439.346 L 977.172 460.577 C 986.537 454.935 994.601 449.566 1003.74 443.526 C 998.585 439.905 993.743 436.317 988.664 432.625 L 977.091 424.238 z M 1071.59 462.079 C 1071.76 450.848 1071.82 439.617 1071.76 428.385 C 1064.11 434.316 1055.94 439.526 1048.23 445.382 C 1051.69 448.185 1058.95 454.625 1062.61 456.518 C 1065.05 458.495 1069.11 463.589 1071.59 462.079 z M 991.786 669.002 C 1003.57 676.607 1014.61 684.674 1025.76 693.163 C 1029.41 697.023 1031.13 693.446 1035.36 690.399 C 1041.53 685.964 1047.62 681.6 1053.86 677.276 C 1048.84 670.701 1029.89 648.284 1023.59 644.1 C 1015.49 649.244 998.781 662.334 991.786 669.002 z M 265.098 646.327 C 271.095 641.505 268.067 639.728 261.441 637.256 C 257.05 644.222 254.732 649.897 265.098 646.327 z M 986.686 639.292 C 990.761 636.699 1001.33 628.168 1004.82 625.087 C 996.328 615.649 986.302 605.099 977.529 595.784 C 977.405 610.173 978.194 625.155 977.627 639.407 L 977.716 641.18 C 977.943 649.033 982.076 643.115 986.686 639.292 z M 270.407 622.591 C 266.699 626.579 262.35 631.727 270.797 631.486 C 277.462 627.075 278.741 625.077 270.407 622.591 z M 1053.77 709.017 C 1059.1 709.006 1070.95 711.344 1071.81 705.939 C 1073.26 695.907 1072.47 695.621 1064.67 701.745 C 1060.98 704.039 1057.37 706.57 1053.77 709.017 z M 1071.97 648.638 L 1072.18 602.669 C 1062.24 610.618 1052.51 618.838 1043.02 627.321 C 1045.72 630.228 1058.88 644.69 1061.27 646.227 C 1062.53 647.789 1069.73 656.153 1071.39 656.24 C 1072.24 655.208 1071.97 650.092 1071.97 648.638 z M 1070.63 553.63 C 1071.94 553.488 1071.97 552.874 1071.86 551.534 C 1069.27 519.783 1080.66 496.506 1045.85 530.679 C 1050.34 535.011 1058.19 542.966 1062.85 546.599 C 1065.54 548.976 1067.81 551.229 1070.63 553.63 z M 257.92 662.065 C 260.996 657.097 260.201 653.892 253.906 652.741 C 249.389 660.942 247.592 664.166 257.92 662.065 z M 246.148 669.392 C 242.852 674.734 238.825 679.864 247.533 680.469 L 248.875 678.983 C 253.711 673.913 251.507 672.334 246.148 669.392 z M 1102.4 1736.9 C 1096.23 1745.88 1077.36 1781.59 1072.25 1792.03 C 1075.73 1796.13 1077.56 1794.6 1081.25 1790.53 C 1084.5 1787.17 1086.97 1779.84 1089.49 1776.69 C 1094.91 1769.9 1095.44 1769.33 1097 1761.01 C 1097.14 1760.25 1101.42 1754.81 1102.73 1752.43 C 1104.48 1749.25 1103.39 1743.45 1106.53 1741.16 C 1113.54 1739.1 1114.81 1724.08 1109.21 1721.19 L 1109.12 1721.23 L 1109.09 1721.33 C 1108.56 1721.1 1108.03 1720.87 1107.5 1720.64 C 1105.55 1724.6 1105.92 1735.9 1102.4 1736.9 z M 977.652 505.646 C 977.331 521.569 977.395 540.908 977.8 556.834 C 983.07 552.87 988.172 548.687 993.094 544.298 C 998.412 539.618 1001.89 536.772 1006.96 531.64 C 999.425 523.518 986.569 512.28 977.652 505.646 z" fill="rgb(24,21,55)" transform="translate(0,0)"></path>
<path d="M 597.889 1506.79 C 625.305 1506.08 657.253 1507.01 684.997 1507.03 L 864.677 1507 L 1422.48 1506.83 C 1423.3 1517.34 1429.68 1513.25 1432.5 1515.45 C 1400.88 1532.86 1365.34 1549.77 1335.15 1566.95 C 1364.39 1583.29 1393.76 1599.39 1423.25 1615.26 C 1420.11 1622.88 1422.98 1624.01 1430.42 1627.04 L 601.821 1627.63 C 637.21 1606.97 676.058 1588.82 711.767 1567.44 C 698.481 1559.44 683.404 1552 669.552 1544.7 L 597.889 1506.79 z" fill="rgb(200,141,103)" transform="translate(0,0)"></path>
<path d="M 990.983 794.297 L 1057.19 794.15 L 1056.94 1486.58 C 1035.01 1486.78 1013.08 1486.85 991.145 1486.8 L 990.983 794.297 z" fill="rgb(200,141,103)" transform="translate(0,0)"></path>
<path d="M 892.431 727.376 C 903.571 725.573 931.062 727.108 943.926 727.094 L 1046.67 726.947 L 1121.76 726.935 C 1155.3 727.012 1179.91 725.15 1207.62 747.894 C 1250.89 783.412 1249.12 869.433 1181.61 873.262 C 1209.2 842.349 1199.56 796.924 1160.77 781.452 C 1150.43 777.401 1136.52 777.547 1125.41 777.481 L 979.4 777.146 C 969.909 777.121 960.313 776.942 950.837 777.083 C 921.638 777.516 889.779 773.265 867.323 796.218 C 854.715 809.104 850.046 828.993 853.108 846.526 C 854.425 854.064 859.797 861.127 859.783 869.561 C 854.347 875.709 842.045 867.279 837.245 863.595 C 793.156 829.76 811.127 762.311 855.618 738.013 C 868.476 730.99 878.035 729.024 892.431 727.376 z" fill="rgb(200,141,103)" transform="translate(0,0)"></path>
<path d="M 965.201 794.494 L 974.624 794.494 L 974.18 1486.63 L 955.75 1486.52 L 944.954 1486.4 L 944.009 794.789 L 965.201 794.494 z" fill="rgb(200,141,103)" transform="translate(0,0)"></path>
<path d="M 1074.45 794.824 C 1084.23 794.675 1094.16 794.742 1103.96 794.717 L 1104.07 1273.8 L 1104.17 1416.96 C 1104.19 1431.81 1105.2 1473.56 1103.64 1486.82 L 1074.07 1486.73 L 1074.45 794.824 z" fill="rgb(200,141,103)" transform="translate(0,0)"></path>
<path d="M 1014.19 192.489 C 1056.57 186.879 1095.53 216.558 1101.38 258.912 C 1107.22 301.266 1077.76 340.387 1035.44 346.468 C 992.785 352.597 953.286 322.852 947.395 280.163 C 941.503 237.475 971.468 198.143 1014.19 192.489 z" fill="rgb(200,141,103)" transform="translate(0,0)"></path>
<path d="M 1074.39 1648.76 C 1084.1 1648.63 1094.23 1648.85 1103.97 1648.92 C 1104.01 1665.02 1105.07 1725.55 1102.4 1736.9 C 1096.23 1745.88 1077.36 1781.59 1072.25 1792.03 C 1069.84 1795.16 1065.27 1804.95 1062.93 1808.64 C 1052.47 1825.19 1033.56 1868.99 1022.46 1881.51 C 998.461 1837.23 976.748 1791.12 952.033 1747.13 C 949.475 1742.57 946.919 1738.17 944.148 1733.74 C 943.566 1705.96 943.982 1676.72 943.977 1648.87 C 953.893 1648.58 964.477 1648.79 974.446 1648.83 C 974.496 1666.82 972 1687.07 974.858 1704.74 C 976.054 1712.14 1019.08 1812.88 1025.05 1821.9 C 1033.07 1805.78 1042.59 1778.67 1050.26 1761.49 C 1056 1748.63 1070.94 1714.93 1074.08 1703.57 C 1075.24 1699.39 1074.4 1655.86 1074.39 1648.76 z" fill="rgb(200,141,103)" transform="translate(0,0)"></path>
<path d="M 991.469 1648.83 C 1013.22 1648.66 1034.97 1648.62 1056.72 1648.72 C 1056.75 1679.19 1060.05 1694.24 1048.25 1722.14 C 1045.02 1730.24 1041.27 1738.56 1038.29 1746.71 C 1034.99 1752.75 1027.36 1771.96 1024.24 1779.22 C 1014.2 1756.03 1001.25 1726.7 992.743 1702.79 C 989.412 1693.42 991.131 1660.76 991.469 1648.83 z" fill="rgb(200,141,103)" transform="translate(0,0)"></path>
<path d="M 1023.47 375.978 C 1028.46 377.21 1058.97 399.034 1064.64 403.272 C 1051.77 411.891 1040.36 418.89 1027.47 428.042 C 1024.37 428.702 1012.32 418.745 1008.94 416.187 C 1005.29 413.444 1001.68 410.652 998.099 407.814 C 994.064 404.702 990.13 401.461 986.302 398.098 C 998.434 390.18 1011.33 383.849 1023.47 375.978 z" fill="rgb(200,141,103)" transform="translate(0,0)"></path>
<path d="M 1025.85 547.616 C 1030.78 550.015 1054.78 574.416 1059.97 579.551 C 1051.49 586.939 1042.86 594.143 1034.07 601.158 C 1031.5 603.226 1029.26 605.094 1026.73 607.228 C 1023.12 608.21 999.019 581.853 994.875 577.615 C 1005.54 567.285 1015.21 558.34 1025.85 547.616 z" fill="rgb(200,141,103)" transform="translate(0,0)"></path>
<path d="M 1024.52 459.904 C 1035.59 466.638 1047.31 477.507 1058.18 485.408 C 1048.38 494.487 1036.94 503.939 1026.69 513.141 C 1018.17 506.382 1000.4 490.514 992.091 482.972 C 1002.92 475.213 1013.77 467.827 1024.52 459.904 z" fill="rgb(200,141,103)" transform="translate(0,0)"></path>
<path d="M 1023.59 644.1 C 1029.89 648.284 1048.84 670.701 1053.86 677.276 C 1047.62 681.6 1041.53 685.964 1035.36 690.399 C 1031.13 693.446 1029.41 697.023 1025.76 693.163 C 1014.61 684.674 1003.57 676.607 991.786 669.002 C 998.781 662.334 1015.49 649.244 1023.59 644.1 z" fill="rgb(200,141,103)" fill-opacity="0.984314" transform="translate(0,0)"></path>
<path d="M 977.652 505.646 C 986.569 512.28 999.425 523.518 1006.96 531.64 C 1001.89 536.772 998.412 539.618 993.094 544.298 C 988.172 548.687 983.07 552.87 977.8 556.834 C 977.395 540.908 977.331 521.569 977.652 505.646 z" fill="rgb(200,141,103)" fill-opacity="0.972549" transform="translate(0,0)"></path>
<path d="M 1043.02 627.321 C 1052.51 618.838 1062.24 610.618 1072.18 602.669 L 1071.97 648.638 C 1071.31 648.202 1066.79 644.266 1066.28 645.855 C 1065.04 649.75 1064.45 645.081 1062.24 645.889 L 1061.27 646.227 C 1058.88 644.69 1045.72 630.228 1043.02 627.321 z" fill="rgb(200,141,103)" fill-opacity="0.870588" transform="translate(0,0)"></path>
<path d="M 977.529 595.784 C 986.302 605.099 996.328 615.649 1004.82 625.087 C 1001.33 628.168 990.761 636.699 986.686 639.292 C 982.998 639.568 981.368 639.713 977.627 639.407 C 978.194 625.155 977.405 610.173 977.529 595.784 z" fill="rgb(200,141,103)" fill-opacity="0.898039" transform="translate(0,0)"></path>
<path d="M 1102.4 1736.9 C 1105.92 1735.9 1105.55 1724.6 1107.5 1720.64 C 1108.03 1720.87 1108.56 1721.1 1109.09 1721.33 L 1109.12 1721.23 L 1109.21 1721.19 C 1114.81 1724.08 1113.54 1739.1 1106.53 1741.16 C 1103.39 1743.45 1104.48 1749.25 1102.73 1752.43 C 1101.42 1754.81 1097.14 1760.25 1097 1761.01 C 1095.44 1769.33 1094.91 1769.9 1089.49 1776.69 C 1086.97 1779.84 1084.5 1787.17 1081.25 1790.53 C 1077.56 1794.6 1075.73 1796.13 1072.25 1792.03 C 1077.36 1781.59 1096.23 1745.88 1102.4 1736.9 z" fill="rgb(24,21,55)" fill-opacity="0.807843" transform="translate(0,0)"></path>
<path d="M 1045.85 530.679 C 1080.66 496.506 1069.27 519.783 1071.86 551.534 C 1071.97 552.874 1071.94 553.488 1070.63 553.63 C 1071.69 546.721 1071.34 544.753 1070.55 537.582 L 1069.19 537.979 C 1059.53 540.902 1057.55 538.864 1062.85 546.599 C 1058.19 542.966 1050.34 535.011 1045.85 530.679 z" fill="rgb(200,141,103)" fill-opacity="0.788235" transform="translate(0,0)"></path>
<path d="M 988.664 432.625 C 993.743 436.317 998.585 439.905 1003.74 443.526 C 994.601 449.566 986.537 454.935 977.172 460.577 L 977.033 439.346 C 977.185 439.662 978.407 442.591 978.477 442.639 C 981.581 441.387 982.782 439.927 983.709 436.965 C 984.436 445.722 986.956 440.423 985.703 433.835 L 988.664 432.625 z" fill="rgb(200,141,103)" fill-opacity="0.909804" transform="translate(0,0)"></path>
<path d="M 1048.23 445.382 C 1055.94 439.526 1064.11 434.316 1071.76 428.385 C 1071.82 439.617 1071.76 450.848 1071.59 462.079 C 1071.53 460.989 1071.23 452.766 1070.01 452.978 C 1067.16 453.478 1063.43 453.28 1062.61 456.518 C 1058.95 454.625 1051.69 448.185 1048.23 445.382 z" fill="rgb(200,141,103)" fill-opacity="0.784314" transform="translate(0,0)"></path>
<path d="M 1048.25 1722.14 C 1050.47 1722.51 1052.54 1720.92 1053.01 1724.02 C 1053.14 1726.3 1051.11 1733.92 1050.26 1735.43 C 1047.74 1739.91 1047.24 1738.39 1045.84 1743.92 C 1042.84 1755.77 1041.74 1748.97 1040.08 1747.39 L 1040.04 1747.41 C 1039.46 1747.18 1038.87 1746.95 1038.29 1746.71 C 1041.27 1738.56 1045.02 1730.24 1048.25 1722.14 z" fill="rgb(24,21,55)" fill-opacity="0.984314" transform="translate(0,0)"></path>
<path d="M 994.977 700.767 C 997.924 701.954 1003.74 706.289 1006.81 708.279 C 1001.69 708.625 985.058 709.73 979.425 708.632 C 978.562 708.464 978.424 704.221 978.317 703.156 C 986.549 702.901 987.767 704.178 994.977 700.767 z" fill="rgb(200,141,103)" transform="translate(0,0)"></path>
<path d="M 1422.48 1506.83 C 1430.88 1506.8 1439.28 1506.81 1447.68 1506.86 C 1442.69 1509.84 1437.84 1513.1 1432.5 1515.45 C 1429.68 1513.25 1423.3 1517.34 1422.48 1506.83 z" fill="rgb(200,141,103)" fill-opacity="0.819608" transform="translate(0,0)"></path>
<path d="M 1423.25 1615.26 C 1431.1 1619.3 1439.02 1623.2 1447.02 1626.93 C 1441.49 1627.06 1435.95 1627.1 1430.42 1627.04 C 1422.98 1624.01 1420.11 1622.88 1423.25 1615.26 z" fill="rgb(200,141,103)" fill-opacity="0.854902" transform="translate(0,0)"></path>
<path d="M 1417.74 1486.85 C 1427.14 1486.2 1529.86 1485.55 1532.48 1486.66 L 1530.43 1487.74 C 1520.95 1486.17 1509.57 1487.45 1499.93 1487.13 C 1474.84 1486.31 1442.27 1489.05 1417.74 1486.85 z" fill="rgb(27,21,59)" fill-opacity="0.839216" transform="translate(0,0)"></path>
<path d="M 1070.55 537.582 C 1071.34 544.753 1071.69 546.721 1070.63 553.63 C 1067.81 551.229 1065.54 548.976 1062.85 546.599 C 1057.55 538.864 1059.53 540.902 1069.19 537.979 L 1070.55 537.582 z" fill="rgb(210,146,103)" fill-opacity="0.196078" transform="translate(0,0)"></path>
<path d="M 977.091 424.238 L 988.664 432.625 L 985.703 433.835 C 983.9 434.527 984.198 435.167 983.709 436.965 C 982.782 439.927 981.581 441.387 978.477 442.639 C 978.407 442.591 977.185 439.662 977.033 439.346 L 977.091 424.238 z" fill="rgb(200,141,103)" fill-opacity="0.984314" transform="translate(0,0)"></path>
<path d="M 261.441 637.256 C 268.067 639.728 271.095 641.505 265.098 646.327 C 254.732 649.897 257.05 644.222 261.441 637.256 z" fill="rgb(24,21,55)" fill-opacity="0.835294" transform="translate(0,0)"></path>
<path d="M 253.906 652.741 C 260.201 653.892 260.996 657.097 257.92 662.065 C 247.592 664.166 249.389 660.942 253.906 652.741 z" fill="rgb(24,21,55)" fill-opacity="0.862745" transform="translate(0,0)"></path>
<path d="M 246.148 669.392 C 251.507 672.334 253.711 673.913 248.875 678.983 L 247.533 680.469 C 238.825 679.864 242.852 674.734 246.148 669.392 z" fill="rgb(24,21,55)" fill-opacity="0.87451" transform="translate(0,0)"></path>
<path d="M 1064.67 701.745 C 1067.71 707.412 1065.52 706.513 1071.81 705.939 C 1070.95 711.344 1059.1 709.006 1053.77 709.017 C 1057.37 706.57 1060.98 704.039 1064.67 701.745 z" fill="rgb(200,141,103)" fill-opacity="0.980392" transform="translate(0,0)"></path>
<path d="M 1061.27 646.227 L 1062.24 645.889 C 1064.45 645.081 1065.04 649.75 1066.28 645.855 C 1066.79 644.266 1071.31 648.202 1071.97 648.638 C 1071.97 650.092 1072.24 655.208 1071.39 656.24 C 1069.73 656.153 1062.53 647.789 1061.27 646.227 z" fill="rgb(210,146,103)" fill-opacity="0.709804" transform="translate(0,0)"></path>
<path d="M 270.407 622.591 C 278.741 625.077 277.462 627.075 270.797 631.486 C 262.35 631.727 266.699 626.579 270.407 622.591 z" fill="rgb(24,21,55)" fill-opacity="0.858824" transform="translate(0,0)"></path>
<path d="M 1062.61 456.518 C 1063.43 453.28 1067.16 453.478 1070.01 452.978 C 1071.23 452.766 1071.53 460.989 1071.59 462.079 C 1069.11 463.589 1065.05 458.495 1062.61 456.518 z" fill="rgb(210,146,103)" fill-opacity="0.4" transform="translate(0,0)"></path>
<path d="M 1064.67 701.745 C 1072.47 695.621 1073.26 695.907 1071.81 705.939 C 1065.52 706.513 1067.71 707.412 1064.67 701.745 z" fill="rgb(210,146,103)" fill-opacity="0.462745" transform="translate(0,0)"></path>
<path d="M 977.627 639.407 C 981.368 639.713 982.998 639.568 986.686 639.292 C 982.076 643.115 977.943 649.033 977.716 641.18 L 977.627 639.407 z" fill="rgb(200,141,103)" fill-opacity="0.972549" transform="translate(0,0)"></path>
<path d="M 983.709 436.965 C 984.198 435.167 983.9 434.527 985.703 433.835 C 986.956 440.423 984.436 445.722 983.709 436.965 z" fill="rgb(210,146,103)" fill-opacity="0.941176" transform="translate(0,0)"></path>
<path d="M 387.326 449.874 C 392.675 448.144 418.425 420.951 424.363 415.07 C 443.321 396.292 458.859 379.285 481.553 364.463 C 476.696 377.554 485.922 367.984 490.019 365.76 L 489.372 366.934 C 485.491 374.143 480.517 375.347 478.921 381.763 C 474.712 383.097 463.214 389.985 459.733 392.678 C 454.987 396.351 449.161 403.638 444.012 407.141 C 434.31 416.353 423.205 425.809 414.103 435.531 C 407.163 442.944 393.687 453.666 392.439 463.991 C 391.555 471.309 401.23 462.138 403.85 461.154 C 400.296 465.552 397.396 469.345 393.189 473.193 C 390.095 472.174 391.566 473.58 388.974 475.44 C 381.252 480.98 384.636 470.561 384.447 470.259 C 383.793 470.116 382.192 470.626 381.947 470.359 C 379.609 467.805 373.206 472.528 372.448 471.631 C 372.466 471.354 376.028 464.803 376.732 462.208 C 378.321 459.446 385.029 452.165 387.326 449.874 z" fill="rgb(24,21,55)" fill-opacity="0.819608" transform="translate(0,0)"></path>
<path d="M 376.732 462.208 C 376.028 464.803 372.466 471.354 372.448 471.631 C 373.206 472.528 379.609 467.805 381.947 470.359 C 382.192 470.626 383.793 470.116 384.447 470.259 C 384.636 470.561 381.252 480.98 388.974 475.44 C 391.566 473.58 390.095 472.174 393.189 473.193 C 389.499 479.507 369.829 502.203 364.279 508.817 L 364.587 507.873 C 366.361 503.424 371.954 493.934 372.96 489.542 C 373.778 485.97 365.391 493.967 367.023 494.424 C 367.394 495.199 364.878 495.706 365.03 495.572 C 361.535 498.655 355.998 504.286 353.179 508.101 C 349.992 512.414 352.583 517.164 357.452 518.06 C 354.705 522.207 351.088 527.376 347.623 530.855 C 347.506 528.665 348.011 526.997 349.105 525.018 C 352.264 519.304 348.385 518.829 344.72 523.831 L 342.751 523.289 C 343.85 522.024 350.106 513.357 347.671 512.185 C 341.789 509.355 342.133 515.515 336.289 519.305 C 334.023 521.3 331.124 523.388 330.511 526.546 C 330.355 527.352 330.97 528.065 331.78 528.042 C 333.669 527.987 335.391 526.57 336.936 525.679 L 338.106 526.156 C 334.653 530.125 333.425 534.212 330.485 538.707 C 325.509 546.315 331.392 545.648 322.216 551.424 C 321.402 551.466 321.273 551.191 320.419 550.615 C 320.976 550.104 321.542 549.604 322.118 549.114 C 328.199 544.01 321.517 543.153 316.038 546.102 L 313.792 545.112 C 328.611 524.069 342.181 503.244 358.933 483.451 C 364.366 477.032 370.834 467.868 376.732 462.208 z M 359.577 494.512 C 363.6 491.93 378.793 482.451 372.167 477.638 C 371.117 478.517 357.766 491.429 357.577 491.859 C 357.82 493.175 358.487 493.473 359.577 494.512 z" fill="rgb(24,21,55)" fill-opacity="0.839216" transform="translate(0,0)"></path>
<path d="M 372.167 477.638 C 378.793 482.451 363.6 491.93 359.577 494.512 C 358.487 493.473 357.82 493.175 357.577 491.859 C 357.766 491.429 371.117 478.517 372.167 477.638 z" fill="rgb(24,21,55)" fill-opacity="0.509804" transform="translate(0,0)"></path>
<path d="M 478.921 381.763 C 479.684 382.399 479.936 382.437 479.336 383.348 C 476.197 384.749 475.948 387.969 473.533 388.53 C 469.71 387.237 458.49 403.499 457.161 406.917 C 457.867 405.822 401.931 462.353 403.85 461.154 C 401.23 462.138 391.555 471.309 392.439 463.991 C 393.687 453.666 407.163 442.944 414.103 435.531 C 423.205 425.809 434.31 416.353 444.012 407.141 C 449.161 403.638 454.987 396.351 459.733 392.678 C 463.214 389.985 474.712 383.097 478.921 381.763 z" fill="rgb(24,21,55)" fill-opacity="0.952941" transform="translate(0,0)"></path>
<path d="M 282.13 595.78 C 291.37 579.807 303.195 560.116 313.792 545.112 L 316.038 546.102 C 311.697 554.304 314.265 553.561 320.419 550.615 C 321.273 551.191 321.402 551.466 322.216 551.424 L 322.618 552.181 C 320.118 555.04 319.593 556.151 319.337 559.886 C 317.541 562.426 313.142 566.399 312.319 568.593 C 309.805 575.293 303.206 573.353 301.656 580.047 C 300.698 584.185 307.355 588.52 300.034 590.114 C 295.119 591.437 286.529 610.152 282.13 595.78 z M 303.878 574.354 C 308.918 569.058 308.864 569.137 302.223 567.757 C 298.238 572.976 296.179 575.545 303.878 574.354 z" fill="rgb(24,21,55)" fill-opacity="0.866667" transform="translate(0,0)"></path>
<path d="M 302.223 567.757 C 308.864 569.137 308.918 569.058 303.878 574.354 C 296.179 575.545 298.238 572.976 302.223 567.757 z" fill="rgb(24,21,55)" fill-opacity="0.780392" transform="translate(0,0)"></path>
<path d="M 496.069 358.237 C 499.096 355.791 504.846 349.041 505.669 349.59 C 509.397 352.082 542.633 318.562 536.692 330.415 C 536.89 330.02 524.026 342.464 522.682 343.544 C 517.589 351.858 510.458 351.429 503.411 358.676 C 500.264 361.913 489.329 369.158 490.544 373.528 C 490.923 373.711 494.964 372.38 496.276 372.237 L 496.729 372.193 C 489.535 378.976 480.959 385.464 473.573 392.135 C 467.888 397.27 463.285 402.049 457.161 406.917 C 458.49 403.499 469.71 387.237 473.533 388.53 C 475.948 387.969 476.197 384.749 479.336 383.348 C 479.936 382.437 479.684 382.399 478.921 381.763 C 480.517 375.347 485.491 374.143 489.372 366.934 L 490.019 365.76 L 489.998 365.265 C 493.472 362.3 493.752 362 496.069 358.237 z" fill="rgb(24,21,55)" fill-opacity="0.933333" transform="translate(0,0)"></path>
<path d="M 342.751 523.289 L 344.72 523.831 C 342.788 526.6 325.592 538.736 343.622 537.1 C 338.817 543.848 333.837 551.661 329.088 557.992 C 326.878 552.435 329.594 551.88 322.618 552.181 L 322.216 551.424 C 331.392 545.648 325.509 546.315 330.485 538.707 C 333.425 534.212 334.653 530.125 338.106 526.156 L 342.751 523.289 z" fill="rgb(24,21,55)" fill-opacity="0.917647" transform="translate(0,0)"></path>
<path d="M 357.452 518.06 C 352.583 517.164 349.992 512.414 353.179 508.101 C 355.998 504.286 361.535 498.655 365.03 495.572 C 364.878 495.706 367.394 495.199 367.023 494.424 C 365.391 493.967 373.778 485.97 372.96 489.542 C 371.954 493.934 366.361 503.424 364.587 507.873 L 364.279 508.817 C 362.296 512.061 359.789 515.066 357.452 518.06 z" fill="rgb(24,21,55)" fill-opacity="0.94902" transform="translate(0,0)"></path>
<path d="M 344.72 523.831 C 348.385 518.829 352.264 519.304 349.105 525.018 C 348.011 526.997 347.506 528.665 347.623 530.855 C 346.781 533.019 345.045 535.222 343.622 537.1 C 325.592 538.736 342.788 526.6 344.72 523.831 z" fill="rgb(24,21,55)" fill-opacity="0.972549" transform="translate(0,0)"></path>
<path d="M 322.618 552.181 C 329.594 551.88 326.878 552.435 329.088 557.992 C 327.595 560.779 323.631 566.709 321.61 569.282 C 321.801 567.943 322.061 566.653 322.323 565.332 L 322.374 565.41 C 322.461 564.425 322.546 564.668 322.369 564.376 C 322.038 564.316 321.729 564.166 321.412 564.051 C 319.561 561.46 322.752 561.085 319.337 559.886 C 319.593 556.151 320.118 555.04 322.618 552.181 z" fill="rgb(24,21,55)" fill-opacity="0.972549" transform="translate(0,0)"></path>
<path d="M 336.289 519.305 C 342.133 515.515 341.789 509.355 347.671 512.185 C 350.106 513.357 343.85 522.024 342.751 523.289 L 338.106 526.156 L 336.936 525.679 C 340.493 521.679 342.257 521.167 336.289 519.305 z" fill="rgb(24,21,55)" fill-opacity="0.811765" transform="translate(0,0)"></path>
<path d="M 275.44 607.626 C 277.778 607.352 281.424 606.578 283.359 608.211 C 283.87 608.646 284.172 609.278 284.188 609.949 C 284.22 611.241 277.14 622.052 273.117 611.752 L 275.44 607.626 z" fill="rgb(24,21,55)" fill-opacity="0.858824" transform="translate(0,0)"></path>
<path d="M 316.038 546.102 C 321.517 543.153 328.199 544.01 322.118 549.114 C 321.542 549.604 320.976 550.104 320.419 550.615 C 314.265 553.561 311.697 554.304 316.038 546.102 z" fill="rgb(24,21,55)" fill-opacity="0.737255" transform="translate(0,0)"></path>
<path d="M 336.289 519.305 C 342.257 521.167 340.493 521.679 336.936 525.679 C 335.391 526.57 333.669 527.987 331.78 528.042 C 330.97 528.065 330.355 527.352 330.511 526.546 C 331.124 523.388 334.023 521.3 336.289 519.305 z" fill="rgb(24,21,55)" fill-opacity="0.733333" transform="translate(0,0)"></path>
<path d="M 481.553 364.463 C 482.857 364.139 483.911 363.867 485.195 363.47 C 487.266 364.702 487.477 364.624 489.998 365.265 L 490.019 365.76 C 485.922 367.984 476.696 377.554 481.553 364.463 z" fill="rgb(24,21,55)" fill-opacity="0.713725" transform="translate(0,0)"></path>
<path d="M 485.195 363.47 C 490.173 359.715 490.582 356.72 496.069 358.237 C 493.752 362 493.472 362.3 489.998 365.265 C 487.477 364.624 487.266 364.702 485.195 363.47 z" fill="rgb(24,21,55)" fill-opacity="0.588235" transform="translate(0,0)"></path>
<path d="M 521.267 1490.24 L 519.682 1489.5 C 518.884 1489.13 516.703 1488.37 516.336 1487.44 C 516.263 1487.25 516.296 1487.03 516.424 1486.87 C 516.935 1486.23 521.497 1486.7 522.304 1486.72 L 521.267 1490.24 z" fill="rgb(27,21,59)" fill-opacity="0.964706" transform="translate(0,0)"></path>
<path d="M 1788.32 1675.3 L 1787.84 1676.89 C 1786.97 1680.16 1784.07 1682.88 1783.45 1686.16 C 1764.58 1708.71 1737.16 1734.31 1716.02 1754.63 C 1705.86 1764.4 1686.91 1782.76 1676.32 1791.07 C 1671.34 1794.14 1660.35 1801.21 1657.83 1806.33 C 1650.8 1813.88 1643.63 1819.07 1635.61 1825.3 C 1629.89 1827.18 1627.5 1828.06 1623.67 1832.76 L 1613.89 1840.8 C 1606.07 1847.16 1604.05 1848.41 1595.38 1852.64 C 1592.28 1854.15 1583.25 1863.18 1579.48 1865.94 C 1576.32 1866.63 1571.66 1867.19 1569.88 1870.29 C 1565.36 1873.48 1560.7 1876.53 1556.47 1880.1 C 1550.93 1882.42 1548.85 1882.43 1544.36 1886.58 C 1538.53 1891.97 1506.05 1906.66 1502.51 1910.57 C 1498.8 1912.53 1489.48 1915 1487.98 1918.29 C 1478.58 1923.61 1467.8 1928.85 1457.82 1932.98 C 1450.12 1939.16 1445.16 1939.38 1437 1945.64 C 1429.37 1947.94 1428.89 1948.02 1422.17 1952.49 C 1403.13 1956.08 1389.6 1967.34 1370.51 1971.11 C 1368.56 1971.5 1346.57 1980.24 1346.04 1981.55 C 1342.18 1985.6 1325.39 1989.15 1320.56 1987.23 L 1319 1983.63 C 1501.59 1927.58 1664.39 1820.62 1788.32 1675.3 z" fill="rgb(24,21,55)" fill-opacity="0.984314" transform="translate(0,0)"></path>
<path d="M 1783.45 1686.16 C 1789.97 1687.22 1794.21 1690.01 1786.52 1695.09 C 1783.07 1701.79 1772.57 1711.1 1766.71 1716.74 C 1743.24 1739.34 1723.11 1765.38 1698.17 1786.38 C 1696.13 1788.1 1688.68 1793.92 1687.74 1795.6 C 1678.49 1798.63 1682.35 1798.05 1676.32 1791.07 C 1686.91 1782.76 1705.86 1764.4 1716.02 1754.63 C 1737.16 1734.31 1764.58 1708.71 1783.45 1686.16 z" fill="rgb(24,21,55)" fill-opacity="0.00784314" transform="translate(0,0)"></path>
<path d="M 1657.91 1816.06 L 1659.74 1816.23 C 1662.37 1816.44 1662.89 1816.28 1665.55 1815.72 C 1667.29 1817.68 1666.51 1816.8 1666.49 1820.69 C 1626.19 1852.56 1574.16 1890.74 1528.69 1915.28 C 1527.42 1912.28 1527.37 1911.95 1524.38 1910.34 C 1526.62 1908.71 1530.45 1904.09 1532.99 1903.92 C 1539.57 1903.47 1540.1 1897.88 1545.44 1895.81 C 1548.41 1894.65 1550.53 1893.6 1552.96 1891.46 C 1556.34 1888.6 1560.34 1888.01 1564.84 1886 C 1566.75 1883.96 1567.53 1883.04 1569.14 1880.8 L 1570.11 1880.31 C 1574.78 1877.96 1575.5 1876.68 1579.33 1873.6 C 1580.45 1872.69 1585.99 1870.79 1588.2 1869.51 C 1590.35 1866.83 1591.35 1865.36 1594.38 1863.59 C 1595.95 1861.97 1609 1855.13 1609.37 1854.6 C 1612.46 1850.09 1620.87 1846.8 1623.31 1843.81 C 1629.24 1836.59 1635.93 1834.22 1641.65 1828.75 C 1644.24 1826.14 1654.58 1817.99 1657.91 1816.06 z M 1653.72 1827.98 C 1654.61 1827.56 1655.21 1826.69 1655.27 1825.7 C 1655.34 1824.71 1654.88 1823.77 1654.05 1823.23 C 1653.22 1822.68 1652.17 1822.63 1651.29 1823.08 C 1649.97 1823.76 1649.43 1825.38 1650.1 1826.72 C 1650.76 1828.06 1652.37 1828.62 1653.72 1827.98 z" fill="rgb(24,21,55)" fill-opacity="0.827451" transform="translate(0,0)"></path>
<path d="M 1651.29 1823.08 C 1652.17 1822.63 1653.22 1822.68 1654.05 1823.23 C 1654.88 1823.77 1655.34 1824.71 1655.27 1825.7 C 1655.21 1826.69 1654.61 1827.56 1653.72 1827.98 C 1652.37 1828.62 1650.76 1828.06 1650.1 1826.72 C 1649.43 1825.38 1649.97 1823.76 1651.29 1823.08 z" fill="rgb(24,21,55)" fill-opacity="0.917647" transform="translate(0,0)"></path>
<path d="M 1786.52 1695.09 C 1791.64 1697.9 1788.39 1698.86 1787.31 1704.98 C 1784.73 1709.6 1772.7 1722.05 1768.66 1726.3 C 1736.53 1759.78 1702.41 1791.3 1666.49 1820.69 C 1666.51 1816.8 1667.29 1817.68 1665.55 1815.72 C 1662.89 1816.28 1662.37 1816.44 1659.74 1816.23 L 1657.91 1816.06 L 1658.41 1815.36 C 1660.73 1815.13 1663.85 1814.84 1665.13 1812.42 C 1667.84 1807.29 1675.14 1806.06 1679.45 1802.43 C 1682.73 1799.67 1684.97 1798.87 1687.74 1795.6 C 1688.68 1793.92 1696.13 1788.1 1698.17 1786.38 C 1723.11 1765.38 1743.24 1739.34 1766.71 1716.74 C 1772.57 1711.1 1783.07 1701.79 1786.52 1695.09 z" fill="rgb(24,21,55)" fill-opacity="0.792157" transform="translate(0,0)"></path>
<path d="M 1851.28 1593.27 L 1852.38 1593.07 C 1853.06 1592.94 1865.21 1588.55 1860.45 1594.98 C 1858.12 1596.97 1851.7 1600.81 1851.5 1603.96 C 1851.44 1604.97 1851.5 1605.99 1851.52 1607 C 1851.57 1611.04 1849.05 1617.38 1846.18 1620.22 C 1845.34 1621.05 1844.31 1621.7 1843.39 1622.43 C 1841.49 1623.92 1839.8 1625.83 1839.06 1628.14 C 1834.44 1631.23 1829.44 1632.85 1829.06 1638.26 C 1828.7 1644.48 1826.58 1642.77 1824.45 1648.48 C 1821.93 1655.25 1809.37 1661.61 1805.93 1669.96 C 1804.07 1674.48 1803.12 1675.4 1801.58 1680.62 C 1801.97 1681.38 1801.79 1681.19 1802.62 1681.61 C 1803.45 1681.58 1803.42 1681.4 1804.23 1680.72 L 1803.92 1681.03 C 1808.17 1677.05 1807.21 1676.54 1812.72 1676.15 C 1811.25 1678.16 1809.67 1680.59 1807.81 1682.21 C 1806.4 1683.02 1800.91 1686.94 1799.98 1683.22 C 1798.87 1678.78 1798.75 1676.96 1800.14 1673.02 C 1802.7 1665.71 1805 1665.96 1810.51 1660.97 C 1810.88 1660.64 1812.07 1659.94 1811.85 1659.25 C 1807.97 1657.04 1808.37 1665.43 1803.51 1662.84 C 1803.05 1661.08 1808.77 1657.8 1809.72 1656.03 C 1809.67 1655.93 1809.63 1655.83 1809.59 1655.72 C 1806.14 1655.64 1803.91 1660.25 1799.25 1662.26 C 1817.58 1640.02 1834.94 1617 1851.28 1593.27 z M 1832.62 1629.02 L 1836.58 1626.03 C 1841.07 1622.59 1850.27 1616.99 1841.5 1614.75 L 1840.21 1615.49 C 1838.07 1616.64 1824.99 1631.47 1832.62 1629.02 z" fill="rgb(24,21,55)" fill-opacity="0.792157" transform="translate(0,0)"></path>
<path d="M 1841.5 1614.75 C 1850.27 1616.99 1841.07 1622.59 1836.58 1626.03 L 1832.62 1629.02 C 1824.99 1631.47 1838.07 1616.64 1840.21 1615.49 L 1841.5 1614.75 z" fill="rgb(24,21,55)" fill-opacity="0.717647" transform="translate(0,0)"></path>
<path d="M 1437.69 1950.34 C 1439.08 1950.17 1440.42 1949.99 1441.82 1949.85 C 1448.23 1951.41 1447.76 1950.11 1452.04 1954.95 L 1448.78 1956.5 C 1447.65 1953.71 1445.64 1950.3 1440.89 1951.89 C 1438.4 1952.73 1440.53 1957.11 1439.41 1960.65 L 1435.97 1962.05 L 1434.56 1961.15 C 1427.4 1956.56 1418.6 1957.85 1420.61 1968.69 L 1418.16 1969.71 C 1409.66 1966.9 1401.22 1964.96 1401.64 1976.54 L 1396.23 1978.57 C 1393.77 1976.02 1393.08 1975.53 1389.52 1975.58 C 1379.88 1975.7 1379.93 1976.72 1378.99 1984.91 L 1377.03 1985.69 C 1370.18 1981.22 1358.38 1980.71 1353.94 1987.76 C 1350.63 1993.02 1341.01 1989.61 1335.99 1989.8 C 1333.51 1989.89 1330.35 1990.24 1327.59 1990.17 C 1326.75 1990.77 1356.39 1980.96 1355.48 1981.04 C 1356.68 1980.93 1357.88 1980.84 1359.09 1980.76 C 1366.28 1980.35 1368.45 1977.11 1375.03 1975.34 C 1379.08 1974.2 1389.57 1973.69 1392.91 1970.83 C 1399.11 1965.51 1407.35 1966 1413.33 1961.49 C 1417.61 1958.27 1423.06 1958.39 1426.11 1955.65 L 1427.08 1955.08 C 1431.69 1952.29 1432.77 1952.08 1437.69 1950.34 z" fill="rgb(24,21,55)" fill-opacity="0.913725" transform="translate(0,0)"></path>
<path d="M 1502.51 1910.57 C 1506.05 1906.66 1538.53 1891.97 1544.36 1886.58 C 1548.85 1882.43 1550.93 1882.42 1556.47 1880.1 C 1559.64 1887.44 1555.83 1885.24 1564.84 1886 C 1560.34 1888.01 1556.34 1888.6 1552.96 1891.46 C 1550.53 1893.6 1548.41 1894.65 1545.44 1895.81 C 1540.1 1897.88 1539.57 1903.47 1532.99 1903.92 C 1530.45 1904.09 1526.62 1908.71 1524.38 1910.34 L 1521.29 1911.05 C 1521.28 1911.05 1519.62 1911.34 1519.42 1911.34 C 1513.64 1911.41 1514.87 1916.97 1510.54 1918.57 C 1510.05 1918.64 1509.55 1918.7 1509.06 1918.77 C 1507.24 1918.11 1502.96 1917.67 1502.28 1917.26 C 1499.32 1915.45 1507.57 1915.16 1502.51 1910.57 z" fill="rgb(24,21,55)" fill-opacity="0.0941176" transform="translate(0,0)"></path>
<path d="M 1839.06 1628.14 C 1837.63 1633.72 1830.12 1639 1834.51 1642.38 C 1839.54 1639.11 1844.8 1627.66 1852.67 1623.98 C 1847.21 1632.89 1820.09 1669.84 1812.72 1676.15 C 1807.21 1676.54 1808.17 1677.05 1803.92 1681.03 L 1804.23 1680.72 C 1803.42 1681.4 1803.45 1681.58 1802.62 1681.61 C 1801.79 1681.19 1801.97 1681.38 1801.58 1680.62 C 1803.12 1675.4 1804.07 1674.48 1805.93 1669.96 C 1809.37 1661.61 1821.93 1655.25 1824.45 1648.48 C 1826.58 1642.77 1828.7 1644.48 1829.06 1638.26 C 1829.44 1632.85 1834.44 1631.23 1839.06 1628.14 z" fill="rgb(24,21,55)" fill-opacity="0.917647" transform="translate(0,0)"></path>
<path d="M 1799.25 1662.26 C 1803.91 1660.25 1806.14 1655.64 1809.59 1655.72 C 1809.63 1655.83 1809.67 1655.93 1809.72 1656.03 C 1808.77 1657.8 1803.05 1661.08 1803.51 1662.84 C 1808.37 1665.43 1807.97 1657.04 1811.85 1659.25 C 1812.07 1659.94 1810.88 1660.64 1810.51 1660.97 C 1805 1665.96 1802.7 1665.71 1800.14 1673.02 C 1798.75 1676.96 1798.87 1678.78 1799.98 1683.22 C 1800.91 1686.94 1806.4 1683.02 1807.81 1682.21 C 1802.37 1689.44 1793.81 1698.49 1787.31 1704.98 C 1788.39 1698.86 1791.64 1697.9 1786.52 1695.09 C 1794.21 1690.01 1789.97 1687.22 1783.45 1686.16 C 1784.07 1682.88 1786.97 1680.16 1787.84 1676.89 L 1788.32 1675.3 C 1792 1670.98 1795.65 1666.64 1799.25 1662.26 z" fill="rgb(24,21,55)" fill-opacity="0.745098" transform="translate(0,0)"></path>
<path d="M 1623.67 1832.76 C 1623.77 1840.41 1625.97 1835.67 1623.31 1843.81 C 1620.87 1846.8 1612.46 1850.09 1609.37 1854.6 C 1609 1855.13 1595.95 1861.97 1594.38 1863.59 C 1591.35 1865.36 1590.35 1866.83 1588.2 1869.51 C 1582.44 1868.44 1584.67 1868.53 1579.48 1865.94 C 1583.25 1863.18 1592.28 1854.15 1595.38 1852.64 C 1604.05 1848.41 1606.07 1847.16 1613.89 1840.8 L 1623.67 1832.76 z" fill="rgb(24,21,55)" fill-opacity="0.0235294" transform="translate(0,0)"></path>
<path d="M 1346.04 1981.55 C 1346.57 1980.24 1368.56 1971.5 1370.51 1971.11 C 1389.6 1967.34 1403.13 1956.08 1422.17 1952.49 C 1422.69 1955 1423.72 1954.96 1426.11 1955.65 C 1423.06 1958.39 1417.61 1958.27 1413.33 1961.49 C 1407.35 1966 1399.11 1965.51 1392.91 1970.83 C 1389.57 1973.69 1379.08 1974.2 1375.03 1975.34 C 1368.45 1977.11 1366.28 1980.35 1359.09 1980.76 C 1357.88 1980.84 1356.68 1980.93 1355.48 1981.04 C 1360.49 1979.74 1368.97 1977.36 1372.75 1974.23 C 1373.54 1973.51 1374.64 1973.03 1374.36 1972.03 C 1374.66 1972.21 1348.3 1980.71 1346.04 1981.55 z" fill="rgb(24,21,55)" fill-opacity="0.721569" transform="translate(0,0)"></path>
<path d="M 1870.52 1578.97 C 1878.71 1571.99 1876.43 1575.11 1882.46 1565.74 C 1888.43 1556.47 1882.55 1555.06 1892.86 1549.2 C 1887.13 1557.35 1888.39 1554 1886.39 1563.59 C 1884.57 1572.3 1875.52 1576.17 1874.08 1583.88 L 1874.93 1584.99 L 1874.46 1585.34 C 1884.2 1580.93 1881.47 1574.36 1885.5 1572.38 C 1885.5 1571.96 1885.3 1571.86 1884.96 1571.41 C 1885.46 1569.93 1885.31 1568.61 1886.55 1567.92 C 1887.41 1568.04 1888.08 1568.84 1888.48 1568.79 C 1890.73 1566.29 1887.89 1568.02 1892.66 1565 C 1888.24 1574.24 1870.91 1599.07 1864.67 1608.21 C 1848.92 1611.78 1855.47 1602.24 1863.3 1595.98 L 1863.93 1594.56 C 1873.74 1587.64 1872.03 1592.1 1870.52 1578.97 z" fill="rgb(24,21,55)" fill-opacity="0.960784" transform="translate(0,0)"></path>
<path d="M 1878.57 1551.45 C 1879.97 1551.44 1881.2 1550.64 1881.38 1549.43 C 1882.64 1540.94 1899.88 1540.84 1892.86 1549.2 C 1882.55 1555.06 1888.43 1556.47 1882.46 1565.74 C 1876.43 1575.11 1878.71 1571.99 1870.52 1578.97 C 1872.03 1592.1 1873.74 1587.64 1863.93 1594.56 C 1866.02 1590.44 1871.23 1587.51 1869.01 1584.03 C 1865.2 1578.07 1867.92 1577.1 1873.12 1574.8 C 1877.83 1567.63 1875.77 1566.79 1868.31 1570.25 L 1866.55 1570.43 C 1870.63 1564.15 1874.63 1557.83 1878.57 1551.45 z M 1889.03 1550.66 C 1891.88 1544.96 1890.96 1545.45 1884.99 1544.45 C 1882.38 1551.4 1881.89 1551.28 1889.03 1550.66 z" fill="rgb(24,21,55)" fill-opacity="0.870588" transform="translate(0,0)"></path>
<path d="M 1884.99 1544.45 C 1890.96 1545.45 1891.88 1544.96 1889.03 1550.66 C 1881.89 1551.28 1882.38 1551.4 1884.99 1544.45 z" fill="rgb(24,21,55)" fill-opacity="0.815686" transform="translate(0,0)"></path>
<path d="M 962.334 0 L 1017.31 0 C 1026.87 3.46126 1055.76 0.537363 1061.98 7.5933 L 1061.97 7.69567 L 1061.88 7.73984 L 1061.97 7.91309 C 1060.35 9.88857 1052.94 9.00171 1049.96 9 C 1039.37 6.30691 1020.35 5.04724 1009.44 5.67741 C 1005.79 3.21895 1003.47 2.13546 999.012 2.12367 C 993.092 2.10803 966.522 -0.65721 963.567 2.39968 C 962.866 2.58975 963.178 2.63335 962.621 2.3848 C 962.332 1.79171 962.365 0.54419 962.334 0 z" fill="rgb(24,21,55)" fill-opacity="0.898039" transform="translate(0,0)"></path>
<path d="M 1860.45 1594.98 L 1863.3 1595.98 C 1855.47 1602.24 1848.92 1611.78 1864.67 1608.21 C 1862.82 1610.56 1853.98 1622.71 1852.67 1623.98 C 1844.8 1627.66 1839.54 1639.11 1834.51 1642.38 C 1830.12 1639 1837.63 1633.72 1839.06 1628.14 C 1839.8 1625.83 1841.49 1623.92 1843.39 1622.43 C 1844.31 1621.7 1845.34 1621.05 1846.18 1620.22 C 1849.05 1617.38 1851.57 1611.04 1851.52 1607 C 1851.5 1605.99 1851.44 1604.97 1851.5 1603.96 C 1851.7 1600.81 1858.12 1596.97 1860.45 1594.98 z" fill="url(#Gradient1)" transform="translate(0,0)"></path>
<path d="M 947.83 0 L 950.605 0 C 950.149 0.918661 949.443 1.91738 949.463 2.98261 C 949.879 3.64867 982.159 2.5144 986.574 3.53214 C 991.395 4.6435 1003.87 5.22549 1009.44 5.67741 C 1020.35 5.04724 1039.37 6.30691 1049.96 9 C 1033.12 8.98875 1014.93 9.5773 998.288 8.62042 C 983.124 7.74849 968.227 2.86208 952.35 5.17853 C 949.023 5.66403 942.302 4.34041 938.713 3.83133 C 942.46 3.33945 943.436 3.25725 946.956 2.03658 L 947.83 0 z" fill="rgb(27,21,59)" fill-opacity="0.847059" transform="translate(0,0)"></path>
<path d="M 1657.83 1806.33 C 1660.35 1801.21 1671.34 1794.14 1676.32 1791.07 C 1682.35 1798.05 1678.49 1798.63 1687.74 1795.6 C 1684.97 1798.87 1682.73 1799.67 1679.45 1802.43 C 1675.14 1806.06 1667.84 1807.29 1665.13 1812.42 C 1663.85 1814.84 1660.73 1815.13 1658.41 1815.36 C 1659.59 1813.08 1660.4 1811.85 1659.27 1809.42 L 1657.83 1806.33 z" fill="rgb(24,21,55)" fill-opacity="0.470588" transform="translate(0,0)"></path>
<path d="M 1487.98 1918.29 C 1489.18 1921.32 1487.27 1920.77 1490.22 1922.94 C 1491.77 1924.08 1490.28 1925.56 1489.25 1926.46 L 1488.35 1927.24 L 1487.49 1928.02 C 1480.78 1931.54 1482.27 1935.97 1473.51 1935.97 C 1472.58 1935.96 1469.14 1937.03 1468.19 1937.33 L 1467.08 1937.67 C 1460.46 1937.29 1465.03 1935.29 1459.41 1933.62 L 1457.82 1932.98 C 1467.8 1928.85 1478.58 1923.61 1487.98 1918.29 z" fill="rgb(24,21,55)" fill-opacity="0.0313725" transform="translate(0,0)"></path>
<path d="M 1866.55 1570.43 L 1868.31 1570.25 C 1867.48 1576.1 1867.82 1574.5 1873.12 1574.8 C 1867.92 1577.1 1865.2 1578.07 1869.01 1584.03 C 1871.23 1587.51 1866.02 1590.44 1863.93 1594.56 L 1863.3 1595.98 L 1860.45 1594.98 C 1865.21 1588.55 1853.06 1592.94 1852.38 1593.07 L 1851.28 1593.27 C 1856.48 1585.72 1861.57 1578.11 1866.55 1570.43 z" fill="rgb(24,21,55)" fill-opacity="0.831373" transform="translate(0,0)"></path>
<path d="M 2048 983.29 C 2045.2 967.022 2046.59 946.72 2044.13 929.998 C 2043.69 927.048 2040.52 908.658 2043.6 908.281 L 2044.6 908.13 C 2045.77 910.401 2046.07 910.436 2048 912.387 L 2048 983.29 z" fill="rgb(253,253,253)" fill-opacity="0.980392" transform="translate(0,0)"></path>
<path d="M 1437 1945.64 C 1445.16 1939.38 1450.12 1939.16 1457.82 1932.98 L 1459.41 1933.62 C 1465.03 1935.29 1460.46 1937.29 1467.08 1937.67 C 1464.85 1939.99 1464.13 1941 1461.43 1942.58 C 1450.48 1943.76 1450.4 1944.37 1441.82 1949.85 C 1440.42 1949.99 1439.08 1950.17 1437.69 1950.34 C 1437.53 1948.73 1437.44 1947.2 1437 1945.64 z" fill="rgb(24,21,55)" fill-opacity="0.133333" transform="translate(0,0)"></path>
<path d="M 1487.49 1928.02 C 1487.4 1933.12 1486.99 1932.86 1491.67 1934.94 C 1484.04 1939 1475.62 1943.11 1468.14 1947.31 C 1466.42 1942.94 1466.16 1943.54 1461.43 1942.58 C 1464.13 1941 1464.85 1939.99 1467.08 1937.67 L 1468.19 1937.33 C 1469.14 1937.03 1472.58 1935.96 1473.51 1935.97 C 1482.27 1935.97 1480.78 1931.54 1487.49 1928.02 z" fill="rgb(24,21,55)" fill-opacity="0.721569" transform="translate(0,0)"></path>
<path d="M 2042.38 1133.79 C 2043.49 1119.47 2045.72 1087.1 2048 1074.46 L 2048 1137.6 C 2047.09 1136.47 2044.29 1133.47 2043.2 1133.07 C 2042.93 1133.31 2042.66 1133.55 2042.38 1133.79 z" fill="rgb(253,253,253)" fill-opacity="0.258824" transform="translate(0,0)"></path>
<path d="M 1441.82 1949.85 C 1450.4 1944.37 1450.48 1943.76 1461.43 1942.58 C 1466.16 1943.54 1466.42 1942.94 1468.14 1947.31 C 1462.95 1949.89 1457.01 1952.33 1452.04 1954.95 C 1447.76 1950.11 1448.23 1951.41 1441.82 1949.85 z M 1462.57 1948.3 L 1463.38 1947.32 C 1466.73 1943.37 1459.37 1943.96 1457.83 1944 L 1456.57 1944.01 C 1455.24 1948.51 1459.41 1948.47 1462.57 1948.3 z" fill="rgb(24,21,55)" fill-opacity="0.780392" transform="translate(0,0)"></path>
<path d="M 1456.57 1944.01 L 1457.83 1944 C 1459.37 1943.96 1466.73 1943.37 1463.38 1947.32 L 1462.57 1948.3 C 1459.41 1948.47 1455.24 1948.51 1456.57 1944.01 z" fill="rgb(24,21,55)" fill-opacity="0.858824" transform="translate(0,0)"></path>
<path d="M 1657.83 1806.33 L 1659.27 1809.42 C 1660.4 1811.85 1659.59 1813.08 1658.41 1815.36 L 1657.91 1816.06 C 1654.58 1817.99 1644.24 1826.14 1641.65 1828.75 C 1638.82 1826.52 1638.91 1826.55 1635.61 1825.3 C 1643.63 1819.07 1650.8 1813.88 1657.83 1806.33 z" fill="rgb(24,21,55)" fill-opacity="0.0235294" transform="translate(0,0)"></path>
<path d="M 1487.98 1918.29 C 1489.48 1915 1498.8 1912.53 1502.51 1910.57 C 1507.57 1915.16 1499.32 1915.45 1502.28 1917.26 C 1502.96 1917.67 1507.24 1918.11 1509.06 1918.77 L 1505.86 1919.57 L 1503.93 1919.98 C 1497.5 1921.15 1498.63 1925.37 1491.56 1927.25 C 1490.74 1927.48 1489.92 1927.71 1489.11 1927.97 L 1487.49 1928.02 L 1488.35 1927.24 L 1489.25 1926.46 C 1490.28 1925.56 1491.77 1924.08 1490.22 1922.94 C 1487.27 1920.77 1489.18 1921.32 1487.98 1918.29 z" fill="rgb(24,21,55)" fill-opacity="0.12549" transform="translate(0,0)"></path>
<path d="M 1623.67 1832.76 C 1627.5 1828.06 1629.89 1827.18 1635.61 1825.3 C 1638.91 1826.55 1638.82 1826.52 1641.65 1828.75 C 1635.93 1834.22 1629.24 1836.59 1623.31 1843.81 C 1625.97 1835.67 1623.77 1840.41 1623.67 1832.76 z" fill="rgb(24,21,55)" fill-opacity="0.215686" transform="translate(0,0)"></path>
<path d="M 1569.88 1870.29 C 1571.57 1875.85 1573.36 1874.91 1570.82 1878.44 L 1569.14 1880.8 C 1567.53 1883.04 1566.75 1883.96 1564.84 1886 C 1555.83 1885.24 1559.64 1887.44 1556.47 1880.1 C 1560.7 1876.53 1565.36 1873.48 1569.88 1870.29 z" fill="rgb(24,21,55)" fill-opacity="0.0235294" transform="translate(0,0)"></path>
<path d="M 1509.06 1918.77 C 1509.55 1918.7 1510.05 1918.64 1510.54 1918.57 C 1514.87 1916.97 1513.64 1911.41 1519.42 1911.34 C 1519.62 1911.34 1521.28 1911.05 1521.29 1911.05 C 1518.36 1916.29 1518.93 1914.15 1521.37 1919.41 L 1518 1921.2 C 1516.04 1922.22 1514.94 1922.8 1512.99 1923.93 L 1507.53 1927.03 C 1501.95 1924.83 1500.52 1924.36 1505.86 1919.57 L 1509.06 1918.77 z" fill="rgb(24,21,55)" fill-opacity="0.709804" transform="translate(0,0)"></path>
<path d="M 950.605 0 L 962.334 0 C 962.365 0.54419 962.332 1.79171 962.621 2.3848 C 963.178 2.63335 962.866 2.58975 963.567 2.39968 C 966.522 -0.65721 993.092 2.10803 999.012 2.12367 C 1003.47 2.13546 1005.79 3.21895 1009.44 5.67741 C 1003.87 5.22549 991.395 4.6435 986.574 3.53214 C 982.159 2.5144 949.879 3.64867 949.463 2.98261 C 949.443 1.91738 950.149 0.918661 950.605 0 z" fill="rgb(24,21,55)" fill-opacity="0.886275" transform="translate(0,0)"></path>
<path d="M 1569.88 1870.29 C 1571.66 1867.19 1576.32 1866.63 1579.48 1865.94 C 1584.67 1868.53 1582.44 1868.44 1588.2 1869.51 C 1585.99 1870.79 1580.45 1872.69 1579.33 1873.6 C 1575.5 1876.68 1574.78 1877.96 1570.11 1880.31 L 1569.14 1880.8 L 1570.82 1878.44 C 1573.36 1874.91 1571.57 1875.85 1569.88 1870.29 z" fill="rgb(24,21,55)" fill-opacity="0.133333" transform="translate(0,0)"></path>
<path d="M 1378.99 1984.91 C 1379.93 1976.72 1379.88 1975.7 1389.52 1975.58 C 1393.08 1975.53 1393.77 1976.02 1396.23 1978.57 C 1389.91 1981.17 1385.48 1982.79 1378.99 1984.91 z" fill="rgb(24,21,55)" fill-opacity="0.972549" transform="translate(0,0)"></path>
<path d="M 1420.61 1968.69 C 1418.6 1957.85 1427.4 1956.56 1434.56 1961.15 L 1435.97 1962.05 C 1430.42 1964.86 1426.28 1966.37 1420.61 1968.69 z" fill="rgb(24,21,55)" fill-opacity="0.980392" transform="translate(0,0)"></path>
<path d="M 1489.11 1927.97 C 1489.92 1927.71 1490.74 1927.48 1491.56 1927.25 C 1498.63 1925.37 1497.5 1921.15 1503.93 1919.98 L 1505.86 1919.57 C 1500.52 1924.36 1501.95 1924.83 1507.53 1927.03 C 1503.02 1929.26 1500.82 1930.32 1496.42 1932.97 C 1496.97 1926.04 1496.4 1928.13 1489.11 1927.97 z" fill="rgb(24,21,55)" fill-opacity="0.568627" transform="translate(0,0)"></path>
<path d="M 1401.64 1976.54 C 1401.22 1964.96 1409.66 1966.9 1418.16 1969.71 C 1412.74 1971.99 1406.92 1974.26 1401.64 1976.54 z" fill="rgb(24,21,55)" fill-opacity="0.968627" transform="translate(0,0)"></path>
<path d="M 1422.17 1952.49 C 1428.89 1948.02 1429.37 1947.94 1437 1945.64 C 1437.44 1947.2 1437.53 1948.73 1437.69 1950.34 C 1432.77 1952.08 1431.69 1952.29 1427.08 1955.08 L 1426.11 1955.65 C 1423.72 1954.96 1422.69 1955 1422.17 1952.49 z" fill="rgb(24,21,55)" fill-opacity="0.407843" transform="translate(0,0)"></path>
<path d="M 1439.41 1960.65 C 1440.53 1957.11 1438.4 1952.73 1440.89 1951.89 C 1445.64 1950.3 1447.65 1953.71 1448.78 1956.5 C 1445.67 1957.96 1442.52 1959.2 1439.41 1960.65 z" fill="rgb(24,21,55)" fill-opacity="0.960784" transform="translate(0,0)"></path>
<path d="M 1487.49 1928.02 L 1489.11 1927.97 C 1496.4 1928.13 1496.97 1926.04 1496.42 1932.97 C 1494.67 1933.63 1493.38 1934.14 1491.67 1934.94 C 1486.99 1932.86 1487.4 1933.12 1487.49 1928.02 z" fill="rgb(24,21,55)" fill-opacity="0.784314" transform="translate(0,0)"></path>
<path d="M 1521.29 1911.05 L 1524.38 1910.34 C 1527.37 1911.95 1527.42 1912.28 1528.69 1915.28 C 1525.97 1917.16 1524.36 1918 1521.37 1919.41 C 1518.93 1914.15 1518.36 1916.29 1521.29 1911.05 z" fill="rgb(24,21,55)" fill-opacity="0.847059" transform="translate(0,0)"></path>
<path d="M 1868.31 1570.25 C 1875.77 1566.79 1877.83 1567.63 1873.12 1574.8 C 1867.82 1574.5 1867.48 1576.1 1868.31 1570.25 z" fill="rgb(24,21,55)" fill-opacity="0.784314" transform="translate(0,0)"></path>
<metadata><recraft-signature>{"signed_by": "recraft", "signature_b64": "8s4cNWF+iewmSA46Fnnm/NC7vzE1Ycn8u7o635/crPDKmzjnQbUgGWommMX04TkIckIO4FYlxpUH5hHstugcBg==", "signing_algo": "Ed25519", "generation_timestamp": 1783581274, "identifier": "3a4a3512-cc3a-450e-8626-db74f84c4be5"}</recraft-signature></metadata></svg>